<svg width="24" height="24" viewBox="0 0 24 24" fill="none" xmlns="http://www.w3.org/2000/svg">
<path d="M12.0001 12.7269L8.40811 16.3189C8.30144 16.4256 8.18344 16.4756 8.05411 16.4689C7.92477 16.4622 7.80677 16.4059 7.70011 16.2999C7.59344 16.1939 7.54011 16.0726 7.54011 15.9359C7.54011 15.8006 7.59344 15.6796 7.70011 15.5729L11.2731 11.9999L7.68111 8.4329C7.57444 8.32623 7.52444 8.2049 7.53111 8.0689C7.53777 7.9329 7.59411 7.8119 7.70011 7.7059C7.80611 7.5999 7.92744 7.54657 8.06411 7.5459C8.19944 7.5459 8.32044 7.59923 8.42711 7.7059L12.0001 11.2979L15.5671 7.7059C15.6738 7.59923 15.7918 7.5459 15.9211 7.5459C16.0504 7.5459 16.1684 7.59923 16.2751 7.7059C16.3858 7.8159 16.4411 7.9379 16.4411 8.0719C16.4411 8.2059 16.3858 8.3259 16.2751 8.4319L12.7021 11.9999L16.2941 15.5919C16.4008 15.6986 16.4541 15.8166 16.4541 15.9459C16.4541 16.0752 16.4008 16.1932 16.2941 16.2999C16.1841 16.4106 16.0621 16.4659 15.9281 16.4659C15.7941 16.4659 15.6741 16.4106 15.5681 16.2999L12.0001 12.7269Z" fill="black"/>
</svg>
