<svg width="24" height="24" viewBox="0 0 24 24" fill="none" xmlns="http://www.w3.org/2000/svg">
<path d="M19.5 2C20.1144 2.00002 20.7179 2.16175 21.25 2.46894C21.782 2.77614 22.2238 3.21797 22.531 3.75004C22.8382 4.2821 22.9999 4.88565 22.9999 5.50002C22.9999 6.11439 22.8382 6.71794 22.531 7.25L15.031 20.24C14.6848 20.8389 14.1689 21.3218 13.5485 21.6277C12.928 21.9336 12.2308 22.0488 11.5449 21.9587C10.859 21.8686 10.2152 21.5773 9.69484 21.1215C9.17443 20.6658 8.80075 20.066 8.62099 19.398L6.85299 12.804L2.02499 7.974C1.5358 7.48446 1.20271 6.86089 1.06784 6.18209C0.932969 5.50329 1.00236 4.79975 1.26725 4.16038C1.53214 3.52102 1.98063 2.97453 2.55603 2.59C3.13143 2.20546 3.80792 2.00015 4.49999 2H19.5ZM4.49999 4C4.20351 4.00026 3.91375 4.08838 3.66732 4.25322C3.42089 4.41806 3.22884 4.65223 3.11541 4.92615C3.00199 5.20008 2.97229 5.50147 3.03006 5.79227C3.08783 6.08307 3.23047 6.35023 3.43999 6.56L7.91399 11.035L14.891 7.007C15.1205 6.87648 15.3924 6.84206 15.6473 6.91125C15.9021 6.98044 16.1192 7.14762 16.2513 7.37631C16.3833 7.60499 16.4195 7.87662 16.352 8.13192C16.2845 8.38721 16.1188 8.60545 15.891 8.739L8.91399 12.768L10.552 18.878C10.629 19.1643 10.7892 19.4213 11.0122 19.6166C11.2352 19.8119 11.5111 19.9367 11.805 19.9754C12.0989 20.014 12.3977 19.9647 12.6636 19.8336C12.9295 19.7025 13.1506 19.4956 13.299 19.239L20.799 6.25C20.9306 6.02197 20.9999 5.76331 20.9999 5.50001C21 5.23671 20.9306 4.97804 20.799 4.75002C20.6673 4.52199 20.478 4.33263 20.25 4.20098C20.0219 4.06932 19.7633 4.00001 19.5 4H4.49999Z" fill="black"/>
</svg>
